<svg version="1" xmlns="http://www.w3.org/2000/svg" width="1600" height="1600" viewBox="0 0 1200.000000 1200.000000"><path d="M619.6 228.7c-16.7 16.4-27.6 43.8-31.1 77.8-.4 3.3-.8 7.6-1 9.5-.2 1.9-.4 7.7-.4 12.8l-.1 9.3-7.7-7.8c-12.1-12.1-25.5-20.1-42.3-25.1-6.9-2.1-19-4.6-19.5-4-.2.2 2.6 3.4 6.1 7.3 9.3 10 13.7 15.9 18.2 24.5 3.8 7.2 7.8 18.2 8.9 24.4.4 2.5.2 2.8-1.4 2.1-12.5-5.5-27.6-8.6-43.8-9-19.6-.6-32.1 1.7-44.5 8-5.9 3-6.8 4.1-3.2 4.2 3.8 0 14.9 2.1 26.2 4.8 6.5 1.5 20.2 7.3 23.5 9.8 1.9 1.5 1.8 1.5-1.8.7-5.8-1.3-41-.9-51.2.5-26.7 3.8-49.2 10.8-73 22.8-37.9 19.2-66.1 45.9-92.7 87.8-20.3 32.1-37.2 76.6-43.3 114.4-.3 1.6-.7 4.1-1 5.5-4.5 24.9-5.3 65.9-1.9 100 .2 3 .7 6.6.9 8 .3 1.4.9 6.1 1.5 10.5s1.5 9.6 2 11.5c.5 1.9 1.1 4.8 1.3 6.5.3 1.6 1.9 8.6 3.7 15.5 12.9 51 36.7 94.6 70 127.9 9.4 9.4 22.6 20.9 30.5 26.5 6.4 4.5 19.8 13.3 23.6 15.4 1.9 1.1 6.1 3.5 9.5 5.4 28.9 16.5 81 34.5 110.9 38.2 2.8.4 7.6 1.1 10.7 1.7 10.3 1.8 40.1 1.5 68.8-.6 6.1-.5 42.4-.4 48 0 30.3 2.5 61.5 2.3 77-.5 3-.5 7.1-1.2 9-1.5 31.9-5 81-23.1 111.7-41.1 39.3-23 67.5-49.7 91.2-86.5C934.7 812.3 951.5 764 957 719c.6-5.2 1.3-10.6 1.5-12 2.4-14.8 2.4-59.9.1-78.5-.2-1.7-.7-5.7-1-9-1.1-9.2-5.4-31.9-8.2-42.5-18.1-69.6-58.4-130.4-107.6-162.6-37-24.2-78.3-37.2-119-37.5-6.7-.1-12.7-.4-13.3-.8-1.8-1.4-14.1-5.9-20.6-7.7-3.5-.9-11-1.8-16.7-2-5.7-.1-10.6-.4-10.8-.7-.7-.7 7.9-11.9 13-17 5.8-5.6 13.7-11 22-14.7 6.1-2.8 19.1-6.5 25.1-7.2 2.7-.3 2.4-.5-2.6-2.1-6.4-1.9-18-4.4-24.8-5.3-6.7-1-28-1.1-32.6-.3-2.2.4-5.8 1-8 1.3-14.6 2.3-34.1 12.3-44.5 23-2.4 2.5-4.7 4.6-5 4.6-.8 0 1.5-20.1 3.5-30.5 5.8-29.6 20.2-56.2 37-68.2 2.5-1.8 2.9-2.7 2.7-5.9-.7-9.6-8.4-17.8-17.7-18.9-4.9-.6-5.1-.5-9.9 4.2z"/></svg>